<?xml version="1.0" encoding="UTF-8" standalone="no"?>
<!DOCTYPE svg PUBLIC "-//W3C//DTD SVG 1.1//EN"
 "http://www.w3.org/Graphics/SVG/1.1/DTD/svg11.dtd">
<!-- Generated by graphviz version 12.2.1 (0)
 -->
<!-- Title: src/Sensors/HC&#45;SR04.cpp Pages: 1 -->
<svg width="146pt" height="142pt"
 viewBox="0.00 0.00 145.50 142.25" xmlns="http://www.w3.org/2000/svg" xmlns:xlink="http://www.w3.org/1999/xlink">
<g id="graph0" class="graph" transform="scale(1 1) rotate(0) translate(4 138.25)">
<title>src/Sensors/HC&#45;SR04.cpp</title>
<!-- Node1 -->
<g id="Node000001" class="node">
<title>Node1</title>
<g id="a_Node000001"><a xlink:title=" ">
<polygon fill="#999999" stroke="#666666" points="137.5,-134.25 0,-134.25 0,-113.5 137.5,-113.5 137.5,-134.25"/>
<text text-anchor="middle" x="68.75" y="-120.75" font-family="Helvetica,sans-Serif" font-size="10.00">src/Sensors/HC&#45;SR04.cpp</text>
</a>
</g>
</g>
<!-- Node2 -->
<g id="Node000002" class="node">
<title>Node2</title>
<g id="a_Node000002"><a xlink:href="HC-SR04_8hpp.html" target="_top" xlink:title=" ">
<polygon fill="white" stroke="#666666" points="108.62,-77.5 28.88,-77.5 28.88,-56.75 108.62,-56.75 108.62,-77.5"/>
<text text-anchor="middle" x="68.75" y="-64" font-family="Helvetica,sans-Serif" font-size="10.00">HC&#45;SR04.hpp</text>
</a>
</g>
</g>
<!-- Node1&#45;&gt;Node2 -->
<g id="edge1_Node000001_Node000002" class="edge">
<title>Node1&#45;&gt;Node2</title>
<g id="a_edge1_Node000001_Node000002"><a xlink:title=" ">
<path fill="none" stroke="#63b8ff" d="M68.75,-113.09C68.75,-106.47 68.75,-97.47 68.75,-89.27"/>
<polygon fill="#63b8ff" stroke="#63b8ff" points="72.25,-89.34 68.75,-79.34 65.25,-89.34 72.25,-89.34"/>
</a>
</g>
</g>
<!-- Node3 -->
<g id="Node000003" class="node">
<title>Node3</title>
<g id="a_Node000003"><a xlink:title=" ">
<polygon fill="#e0e0e0" stroke="#999999" points="102.62,-20.75 34.88,-20.75 34.88,0 102.62,0 102.62,-20.75"/>
<text text-anchor="middle" x="68.75" y="-7.25" font-family="Helvetica,sans-Serif" font-size="10.00">NewPing.h</text>
</a>
</g>
</g>
<!-- Node2&#45;&gt;Node3 -->
<g id="edge2_Node000002_Node000003" class="edge">
<title>Node2&#45;&gt;Node3</title>
<g id="a_edge2_Node000002_Node000003"><a xlink:title=" ">
<path fill="none" stroke="#63b8ff" d="M68.75,-56.34C68.75,-49.72 68.75,-40.72 68.75,-32.52"/>
<polygon fill="#63b8ff" stroke="#63b8ff" points="72.25,-32.59 68.75,-22.59 65.25,-32.59 72.25,-32.59"/>
</a>
</g>
</g>
</g>
</svg>
