<?xml version="1.0" encoding="UTF-8" standalone="no"?>
<!DOCTYPE svg PUBLIC "-//W3C//DTD SVG 1.1//EN"
 "http://www.w3.org/Graphics/SVG/1.1/DTD/svg11.dtd">
<!-- Generated by graphviz version 12.2.1 (0)
 -->
<!-- Title: searchFunction Pages: 1 -->
<svg width="365pt" height="68pt"
 viewBox="0.00 0.00 365.00 67.75" xmlns="http://www.w3.org/2000/svg" xmlns:xlink="http://www.w3.org/1999/xlink">
<g id="graph0" class="graph" transform="scale(1 1) rotate(0) translate(4 63.75)">
<title>searchFunction</title>
<!-- Node1 -->
<g id="Node000001" class="node">
<title>Node1</title>
<g id="a_Node000001"><a xlink:title=" ">
<polygon fill="#999999" stroke="#666666" points="89.5,-39.75 0,-39.75 0,-19 89.5,-19 89.5,-39.75"/>
<text text-anchor="middle" x="44.75" y="-26.25" font-family="Helvetica,sans-Serif" font-size="10.00">searchFunction</text>
</a>
</g>
</g>
<!-- Node2 -->
<g id="Node000002" class="node">
<title>Node2</title>
<g id="a_Node000002"><a xlink:href="main_8cpp.html#a1e3a225f52463d08f8fdade52ecff97a" target="_top" xlink:title=" ">
<polygon fill="white" stroke="#666666" points="245,-59.75 125.5,-59.75 125.5,-39 245,-39 245,-59.75"/>
<text text-anchor="middle" x="185.25" y="-46.25" font-family="Helvetica,sans-Serif" font-size="10.00">getDistancesAverage</text>
</a>
</g>
</g>
<!-- Node1&#45;&gt;Node2 -->
<g id="edge1_Node000001_Node000002" class="edge">
<title>Node1&#45;&gt;Node2</title>
<g id="a_edge1_Node000001_Node000002"><a xlink:title=" ">
<path fill="none" stroke="#63b8ff" d="M89.95,-35.76C97.54,-36.85 105.59,-38.02 113.67,-39.18"/>
<polygon fill="#63b8ff" stroke="#63b8ff" points="113.16,-42.64 123.55,-40.61 114.16,-35.72 113.16,-42.64"/>
</a>
</g>
</g>
<!-- Node4 -->
<g id="Node000004" class="node">
<title>Node4</title>
<g id="a_Node000004"><a xlink:href="main_8cpp.html#aedf6834bd814409888ac3c328d8d5692" target="_top" xlink:title="Turns &lt; the robot">
<polygon fill="white" stroke="#666666" points="203,-20.75 167.5,-20.75 167.5,0 203,0 203,-20.75"/>
<text text-anchor="middle" x="185.25" y="-7.25" font-family="Helvetica,sans-Serif" font-size="10.00">turn</text>
</a>
</g>
</g>
<!-- Node1&#45;&gt;Node4 -->
<g id="edge3_Node000001_Node000004" class="edge">
<title>Node1&#45;&gt;Node4</title>
<g id="a_edge3_Node000001_Node000004"><a xlink:title=" ">
<path fill="none" stroke="#63b8ff" d="M89.95,-23.31C111.62,-20.34 137.06,-16.85 156.05,-14.24"/>
<polygon fill="#63b8ff" stroke="#63b8ff" points="156.29,-17.74 165.73,-12.92 155.34,-10.81 156.29,-17.74"/>
</a>
</g>
</g>
<!-- Node3 -->
<g id="Node000003" class="node">
<title>Node3</title>
<g id="a_Node000003"><a xlink:href="distance_8hpp.html#a0f602b4f0b199a8fa169d46e20ed9209" target="_top" xlink:title=" ">
<polygon fill="white" stroke="#666666" points="357,-59.75 281,-59.75 281,-39 357,-39 357,-59.75"/>
<text text-anchor="middle" x="319" y="-46.25" font-family="Helvetica,sans-Serif" font-size="10.00">GetDistance</text>
</a>
</g>
</g>
<!-- Node2&#45;&gt;Node3 -->
<g id="edge2_Node000002_Node000003" class="edge">
<title>Node2&#45;&gt;Node3</title>
<g id="a_edge2_Node000002_Node000003"><a xlink:title=" ">
<path fill="none" stroke="#63b8ff" d="M245.19,-49.38C253.29,-49.38 261.53,-49.38 269.42,-49.38"/>
<polygon fill="#63b8ff" stroke="#63b8ff" points="269.15,-52.88 279.15,-49.38 269.15,-45.88 269.15,-52.88"/>
</a>
</g>
</g>
</g>
</svg>
